<?xml version="1.0" encoding="UTF-8" standalone="no"?>
<!DOCTYPE svg  PUBLIC '-//W3C//DTD SVG 20010904//EN'  'http://www.w3.org/TR/2001/REC-SVG-20010904/DTD/svg10.dtd'>
<svg xmlns="http://www.w3.org/2000/svg" height="260pt" width="260pt" version="1.0" preserveAspectRatio="xMidYMid meet" viewBox="0 0 260.000000 260.000000">
 <metadata>Created by potrace 1.11, written by Peter Selinger 2001-2013</metadata>
 <g transform="translate(0 260) scale(0.1 -0.1)">
  <path d="m1196 2539c-298-25-554-145-772-363-244-244-365-534-365-876s121-632 365-876c246-246 534-365 882-365 336 0 627 122 870 365 244 244 365 534 365 876 0 258-68 482-214 700-64 96-231 263-327 327-244 163-519 236-804 212zm347-79c31-7 57-16 57-20 0-3-16-14-35-23l-35-17 130-127c72-69 127-130 123-133-9-9-793-270-808-270-7 0-95 179-123 249-1 4 107 33 240 66 134 32 247 62 252 66s-28 58-73 120l-82 112 148-6c81-2 174-10 206-17zm-1133-720c48-81 90-204 99-290l6-65 151-3 151-3 12 43c28 94 116 205 206 260 87 54 153 72 265 72s178-18 265-72c90-55 178-166 206-260l12-43 151 3 151 3 6 65c14 135 87 298 182 405l44 49 26-44c36-64 85-190 108-284 30-117 37-350 15-475-86-490-461-873-946-965-108-21-332-21-440 0-234 44-443 155-616 328-153 152-261 346-316 563-19 75-23 115-23 273s4 198 23 273c23 94 76 228 113 291l23 39 44-49c24-27 61-78 82-114z"/>
  <path d="m1241 1628c-243-39-376-310-259-530 134-253 502-253 636 0 95 178 30 396-145 490-51 27-75 34-158 46-11 2-44-1-74-6z"/>
 </g>
</svg>
